<?xml version="1.0" encoding="utf-8"?>
<svg xmlns="http://www.w3.org/2000/svg"
	xmlns:xlink="http://www.w3.org/1999/xlink"
	width="853px" height="200px" viewBox="0 0 853 200">
<path fillRule="evenodd" d="M 1.94 188C 1.45 188.26 0.85 188.07 0.59 187.59 0.33 187.1 0.51 186.49 1 186.23 1.03 186.22 1.07 186.2 1.1 186.18 1.59 185.92 2.19 186.11 2.45 186.59 2.71 187.08 2.53 187.69 2.04 187.95 2.04 187.95 1.94 188 1.94 188M 5.57 186.05C 5.09 186.32 4.48 186.13 4.22 185.65 3.96 185.16 4.14 184.55 4.63 184.29 4.66 184.28 4.69 184.26 4.72 184.24 5.21 183.98 5.82 184.16 6.08 184.65 6.34 185.13 6.16 185.74 5.67 186 5.67 186 5.57 186.05 5.57 186.05M 9.2 184.09C 8.71 184.36 8.11 184.18 7.84 183.69 7.58 183.21 7.76 182.6 8.24 182.34 8.27 182.32 8.31 182.3 8.34 182.28 8.82 182.02 9.43 182.2 9.7 182.68 9.96 183.17 9.78 183.78 9.29 184.04 9.29 184.04 9.2 184.09 9.2 184.09M 12.81 182.12C 12.33 182.38 11.72 182.21 11.46 181.72 11.19 181.24 11.37 180.63 11.85 180.37 11.88 180.35 11.92 180.33 11.95 180.31 12.43 180.05 13.04 180.22 13.31 180.71 13.57 181.19 13.39 181.8 12.91 182.07 12.91 182.07 12.81 182.12 12.81 182.12M 16.42 180.13C 15.94 180.4 15.33 180.22 15.06 179.74 14.79 179.26 14.97 178.65 15.45 178.38 15.48 178.36 15.52 178.35 15.55 178.33 16.03 178.06 16.64 178.24 16.91 178.72 17.18 179.2 17 179.81 16.52 180.08 16.52 180.08 16.42 180.13 16.42 180.13M 20.02 178.13C 19.54 178.4 18.93 178.23 18.66 177.75 18.39 177.26 18.56 176.65 19.05 176.39 19.08 176.37 19.11 176.35 19.14 176.33 19.62 176.06 20.23 176.24 20.5 176.72 20.77 177.2 20.6 177.81 20.12 178.08 20.12 178.08 20.02 178.13 20.02 178.13M 23.61 176.13C 23.13 176.4 22.52 176.23 22.25 175.74 21.98 175.26 22.15 174.65 22.63 174.38 22.66 174.36 22.7 174.35 22.73 174.33 23.21 174.06 23.82 174.23 24.09 174.71 24.36 175.19 24.19 175.8 23.71 176.07 23.71 176.07 23.61 176.13 23.61 176.13M 27.19 174.11C 26.71 174.39 26.1 174.22 25.83 173.73 25.56 173.25 25.73 172.64 26.21 172.37 26.24 172.35 26.27 172.34 26.31 172.32 26.79 172.05 27.4 172.22 27.67 172.7 27.94 173.18 27.77 173.79 27.29 174.06 27.29 174.06 27.19 174.11 27.19 174.11M 30.78 172.09C 30.3 172.37 29.69 172.2 29.41 171.72 29.14 171.23 29.31 170.62 29.79 170.35 29.83 170.33 29.86 170.32 29.89 170.3 30.37 170.03 30.98 170.2 31.25 170.68 31.52 171.16 31.35 171.77 30.87 172.04 30.87 172.04 30.78 172.09 30.78 172.09M 34.36 170.07C 33.88 170.34 33.27 170.17 33 169.69 32.73 169.21 32.9 168.6 33.38 168.33 33.41 168.31 33.44 168.29 33.47 168.28 33.95 168.01 34.56 168.17 34.83 168.66 35.11 169.14 34.94 169.75 34.46 170.02 34.46 170.02 34.36 170.07 34.36 170.07M 37.94 168.05C 37.45 168.33 36.84 168.16 36.57 167.67 36.3 167.19 36.47 166.58 36.95 166.31 36.99 166.29 37.02 166.28 37.05 166.26 37.53 165.99 38.14 166.16 38.41 166.64 38.68 167.12 38.51 167.73 38.03 168 38.03 168 37.94 168.05 37.94 168.05M 41.51 166.04C 41.03 166.31 40.42 166.14 40.15 165.66 39.88 165.18 40.05 164.57 40.53 164.3 40.57 164.28 40.6 164.26 40.63 164.24 41.11 163.97 41.72 164.15 41.99 164.63 42.26 165.11 42.09 165.72 41.61 165.99 41.61 165.99 41.51 166.04 41.51 166.04M 45.1 164.04C 44.62 164.31 44.01 164.13 43.74 163.65 43.47 163.17 43.64 162.56 44.12 162.29 44.16 162.27 44.19 162.26 44.22 162.24 44.7 161.97 45.31 162.14 45.58 162.62 45.85 163.11 45.68 163.72 45.19 163.99 45.19 163.99 45.1 164.04 45.1 164.04M 48.68 162.05C 48.2 162.32 47.59 162.14 47.32 161.66 47.06 161.18 47.23 160.57 47.72 160.3 47.75 160.28 47.78 160.27 47.81 160.25 48.3 159.98 48.9 160.16 49.17 160.64 49.44 161.13 49.26 161.74 48.78 162 48.78 162 48.68 162.05 48.68 162.05M 52.28 160.09C 51.79 160.35 51.19 160.17 50.92 159.69 50.66 159.2 50.84 158.59 51.33 158.33 51.36 158.31 51.39 158.29 51.42 158.28 51.91 158.01 52.52 158.19 52.78 158.68 53.04 159.17 52.86 159.77 52.38 160.04 52.38 160.04 52.28 160.09 52.28 160.09M 55.88 158.15C 55.4 158.41 54.79 158.23 54.53 157.74 54.27 157.25 54.46 156.65 54.95 156.39 54.98 156.37 55.01 156.35 55.04 156.34 55.53 156.08 56.14 156.26 56.39 156.75 56.65 157.24 56.47 157.84 55.98 158.1 55.98 158.1 55.88 158.15 55.88 158.15M 59.51 156.26C 59.02 156.51 58.41 156.32 58.16 155.83 57.9 155.34 58.1 154.73 58.59 154.48 58.62 154.46 58.65 154.45 58.69 154.43 59.18 154.18 59.78 154.37 60.03 154.86 60.29 155.35 60.09 155.95 59.6 156.21 59.6 156.21 59.51 156.26 59.51 156.26M 63.14 154.41C 62.65 154.65 62.05 154.45 61.8 153.96 61.55 153.47 61.75 152.87 62.25 152.62 62.28 152.6 62.31 152.59 62.35 152.57 62.84 152.32 63.44 152.52 63.69 153.02 63.93 153.51 63.73 154.11 63.24 154.36 63.24 154.36 63.14 154.41 63.14 154.41M 66.81 152.61C 66.31 152.85 65.71 152.64 65.47 152.14 65.23 151.65 65.44 151.05 65.94 150.81 65.98 150.79 66.01 150.78 66.04 150.76 66.54 150.53 67.14 150.74 67.38 151.23 67.61 151.73 67.4 152.33 66.9 152.57 66.9 152.57 66.81 152.61 66.81 152.61M 70.49 150.9C 69.99 151.12 69.4 150.9 69.17 150.4 68.94 149.9 69.16 149.3 69.67 149.07 69.7 149.06 69.73 149.04 69.77 149.03 70.27 148.8 70.86 149.02 71.09 149.53 71.32 150.03 71.1 150.62 70.59 150.85 70.59 150.85 70.49 150.9 70.49 150.9M 74.21 149.26C 73.7 149.48 73.11 149.24 72.9 148.73 72.68 148.22 72.92 147.64 73.43 147.42 73.46 147.41 73.49 147.39 73.53 147.38 74.04 147.16 74.62 147.4 74.84 147.91 75.05 148.42 74.82 149.01 74.31 149.22 74.31 149.22 74.21 149.26 74.21 149.26M 77.96 147.73C 77.45 147.93 76.87 147.68 76.67 147.16 76.47 146.65 76.72 146.07 77.23 145.87 77.27 145.85 77.3 145.84 77.34 145.83 77.85 145.63 78.43 145.88 78.63 146.4 78.83 146.91 78.58 147.49 78.06 147.69 78.06 147.69 77.96 147.73 77.96 147.73M 81.75 146.32C 81.23 146.5 80.66 146.23 80.48 145.71 80.29 145.19 80.56 144.62 81.09 144.43 81.12 144.42 81.15 144.41 81.19 144.4 81.71 144.21 82.28 144.48 82.46 145.01 82.65 145.53 82.37 146.1 81.85 146.28 81.85 146.28 81.75 146.32 81.75 146.32M 85.58 145.04C 85.05 145.21 84.49 144.91 84.33 144.39 84.16 143.86 84.46 143.3 84.98 143.13 85.02 143.12 85.05 143.11 85.09 143.1 85.62 142.94 86.18 143.23 86.34 143.76 86.5 144.29 86.21 144.85 85.68 145.01 85.68 145.01 85.58 145.04 85.58 145.04M 89.44 143.93C 88.91 144.07 88.36 143.75 88.22 143.22 88.08 142.68 88.4 142.14 88.93 141.99 88.97 141.99 89 141.98 89.04 141.97 89.57 141.83 90.12 142.14 90.26 142.68 90.4 143.21 90.08 143.76 89.55 143.9 89.55 143.9 89.44 143.93 89.44 143.93M 93.35 142.99C 92.81 143.1 92.28 142.76 92.16 142.22 92.04 141.68 92.39 141.15 92.93 141.03 92.96 141.03 93 141.02 93.03 141.01 93.57 140.89 94.11 141.24 94.22 141.78 94.34 142.32 93.99 142.85 93.45 142.97 93.45 142.97 93.35 142.99 93.35 142.99M 97.29 142.24C 96.74 142.33 96.23 141.96 96.14 141.42 96.05 140.87 96.42 140.36 96.96 140.27 97 140.26 97.04 140.26 97.07 140.25 97.62 140.16 98.13 140.53 98.22 141.08 98.31 141.62 97.94 142.14 97.39 142.23 97.39 142.23 97.29 142.24 97.29 142.24M 101.25 141.7C 100.7 141.76 100.21 141.37 100.15 140.82 100.09 140.27 100.49 139.78 101.04 139.72 101.07 139.71 101.11 139.71 101.14 139.7 101.69 139.65 102.19 140.04 102.25 140.59 102.3 141.14 101.91 141.63 101.36 141.69 101.36 141.69 101.25 141.7 101.25 141.7M 105.24 141.38C 104.69 141.41 104.21 140.99 104.19 140.44 104.16 139.89 104.58 139.42 105.13 139.39 105.17 139.39 105.21 139.38 105.24 139.38 105.79 139.35 106.26 139.78 106.29 140.33 106.32 140.88 105.9 141.35 105.34 141.38 105.34 141.38 105.24 141.38 105.24 141.38M 109.23 141.29C 108.68 141.28 108.23 140.83 108.24 140.28 108.24 139.73 108.69 139.28 109.24 139.29 109.28 139.29 109.31 139.29 109.35 139.29 109.9 139.29 110.35 139.74 110.35 140.29 110.34 140.84 109.89 141.29 109.34 141.29 109.34 141.29 109.23 141.29 109.23 141.29M 113.23 141.41C 112.68 141.38 112.26 140.9 112.29 140.35 112.32 139.8 112.79 139.38 113.35 139.41 113.38 139.42 113.42 139.42 113.46 139.42 114.01 139.45 114.43 139.93 114.4 140.48 114.36 141.03 113.89 141.45 113.34 141.42 113.34 141.42 113.23 141.41 113.23 141.41M 117.22 141.75C 116.67 141.69 116.27 141.19 116.34 140.64 116.4 140.09 116.89 139.7 117.44 139.76 117.48 139.76 117.51 139.77 117.55 139.77 118.1 139.83 118.49 140.33 118.43 140.88 118.37 141.43 117.87 141.82 117.33 141.76 117.33 141.76 117.22 141.75 117.22 141.75M 121.19 142.29C 120.65 142.2 120.28 141.69 120.36 141.14 120.45 140.6 120.97 140.23 121.51 140.32 121.55 140.32 121.58 140.33 121.62 140.33 122.16 140.42 122.53 140.94 122.44 141.48 122.36 142.03 121.84 142.4 121.3 142.31 121.3 142.31 121.19 142.29 121.19 142.29M 125.14 143.02C 124.6 142.91 124.26 142.38 124.37 141.84 124.48 141.3 125.01 140.95 125.55 141.07 125.59 141.07 125.62 141.08 125.66 141.09 126.2 141.2 126.55 141.73 126.43 142.27 126.32 142.81 125.79 143.16 125.25 143.05 125.25 143.05 125.14 143.02 125.14 143.02M 129.06 143.93C 128.53 143.8 128.21 143.25 128.34 142.72 128.48 142.18 129.02 141.86 129.56 141.99 129.59 142 129.63 142.01 129.66 142.02 130.2 142.16 130.52 142.7 130.39 143.24 130.25 143.77 129.7 144.1 129.17 143.96 129.17 143.96 129.06 143.93 129.06 143.93M 132.95 145C 132.42 144.84 132.12 144.29 132.27 143.76 132.43 143.23 132.99 142.93 133.52 143.08 133.55 143.09 133.59 143.1 133.62 143.11 134.15 143.27 134.45 143.83 134.3 144.36 134.14 144.89 133.58 145.19 133.05 145.03 133.05 145.03 132.95 145 132.95 145M 136.81 146.21C 136.28 146.04 136 145.47 136.18 144.95 136.35 144.43 136.92 144.14 137.44 144.32 137.47 144.33 137.51 144.34 137.54 144.35 138.07 144.53 138.35 145.09 138.18 145.62 138 146.14 137.43 146.42 136.91 146.25 136.91 146.25 136.81 146.21 136.81 146.21M 140.62 147.55C 140.1 147.36 139.84 146.79 140.03 146.27 140.22 145.75 140.79 145.49 141.31 145.68 141.35 145.69 141.38 145.7 141.42 145.72 141.93 145.91 142.2 146.48 142.01 147 141.82 147.52 141.24 147.78 140.72 147.59 140.72 147.59 140.62 147.55 140.62 147.55M 144.41 149.01C 143.9 148.81 143.65 148.22 143.85 147.71 144.06 147.2 144.64 146.95 145.15 147.16 145.19 147.17 145.22 147.18 145.26 147.2 145.77 147.4 146.02 147.98 145.81 148.5 145.61 149.01 145.02 149.26 144.51 149.05 144.51 149.05 144.41 149.01 144.41 149.01M 148.15 150.57C 147.64 150.35 147.41 149.76 147.63 149.25 147.85 148.75 148.43 148.51 148.94 148.73 148.98 148.74 149.01 148.76 149.04 148.77 149.55 148.99 149.78 149.58 149.57 150.09 149.35 150.59 148.76 150.83 148.25 150.61 148.25 150.61 148.15 150.57 148.15 150.57M 151.87 152.22C 151.37 151.99 151.15 151.39 151.38 150.89 151.61 150.39 152.2 150.17 152.7 150.4 152.74 150.41 152.77 150.43 152.8 150.44 153.31 150.67 153.53 151.27 153.3 151.77 153.07 152.27 152.47 152.49 151.97 152.26 151.97 152.26 151.87 152.22 151.87 152.22M 155.56 153.95C 155.06 153.71 154.85 153.11 155.09 152.61 155.33 152.11 155.93 151.91 156.42 152.14 156.46 152.16 156.49 152.18 156.52 152.19 157.02 152.43 157.23 153.03 156.99 153.53 156.75 154.02 156.15 154.23 155.65 153.99 155.65 153.99 155.56 153.95 155.56 153.95M 159.2 155.75C 158.71 155.5 158.51 154.9 158.76 154.4 159.01 153.91 159.61 153.71 160.11 153.96 160.14 153.98 160.17 153.99 160.2 154.01 160.7 154.26 160.89 154.86 160.65 155.35 160.4 155.84 159.8 156.04 159.3 155.79 159.3 155.79 159.2 155.75 159.2 155.75M 162.83 157.61C 162.34 157.35 162.15 156.75 162.41 156.26 162.67 155.77 163.27 155.58 163.76 155.84 163.79 155.86 163.82 155.87 163.86 155.89 164.35 156.15 164.53 156.75 164.28 157.24 164.02 157.73 163.42 157.92 162.93 157.66 162.93 157.66 162.83 157.61 162.83 157.61M 166.43 159.53C 165.95 159.27 165.77 158.66 166.03 158.18 166.29 157.69 166.9 157.51 167.39 157.78 167.42 157.79 167.45 157.81 167.48 157.83 167.97 158.09 168.15 158.7 167.88 159.19 167.62 159.67 167.01 159.85 166.53 159.59 166.53 159.59 166.43 159.53 166.43 159.53M 170.01 161.51C 169.53 161.24 169.36 160.63 169.63 160.15 169.9 159.67 170.51 159.5 170.99 159.77 171.02 159.78 171.05 159.8 171.09 159.82 171.57 160.09 171.74 160.7 171.47 161.18 171.2 161.66 170.59 161.84 170.11 161.57 170.11 161.57 170.01 161.51 170.01 161.51M 173.56 163.53C 173.09 163.26 172.92 162.65 173.2 162.17 173.47 161.69 174.08 161.52 174.56 161.8 174.59 161.82 174.63 161.84 174.66 161.86 175.14 162.13 175.3 162.74 175.02 163.22 174.75 163.7 174.14 163.86 173.66 163.59 173.66 163.59 173.56 163.53 173.56 163.53M 177.09 165.59C 176.62 165.31 176.46 164.7 176.74 164.22 177.02 163.75 177.63 163.59 178.11 163.87 178.14 163.89 178.17 163.91 178.2 163.93 178.68 164.21 178.84 164.82 178.55 165.3 178.27 165.77 177.66 165.93 177.18 165.65 177.18 165.65 177.09 165.59 177.09 165.59M 180.6 167.69C 180.13 167.41 179.98 166.79 180.26 166.32 180.55 165.85 181.16 165.7 181.63 165.98 181.67 166 181.7 166.02 181.73 166.04 182.2 166.32 182.35 166.94 182.07 167.41 181.78 167.88 181.16 168.03 180.69 167.75 180.69 167.75 180.6 167.69 180.6 167.69M 184.09 169.83C 183.62 169.54 183.47 168.92 183.76 168.45 184.05 167.98 184.67 167.83 185.14 168.12 185.17 168.14 185.2 168.16 185.23 168.18 185.7 168.47 185.85 169.09 185.56 169.56 185.27 170.03 184.65 170.17 184.18 169.88 184.18 169.88 184.09 169.83 184.09 169.83M 187.57 171.99C 187.1 171.7 186.96 171.08 187.25 170.61 187.54 170.14 188.16 170 188.63 170.3 188.66 170.32 188.69 170.34 188.72 170.36 189.19 170.65 189.33 171.27 189.04 171.73 188.74 172.2 188.12 172.34 187.66 172.05 187.66 172.05 187.57 171.99 187.57 171.99M 191.04 174.19C 190.57 173.9 190.43 173.28 190.73 172.81 191.03 172.34 191.64 172.21 192.11 172.5 192.14 172.52 192.17 172.54 192.2 172.56 192.67 172.86 192.81 173.48 192.51 173.94 192.22 174.41 191.6 174.55 191.13 174.25 191.13 174.25 191.04 174.19 191.04 174.19M 194.56 176.38C 194.09 176.1 193.94 175.48 194.23 175.01 194.51 174.54 195.13 174.39 195.6 174.67 195.63 174.69 195.66 174.71 195.7 174.73 196.17 175.02 196.32 175.63 196.03 176.1 195.74 176.58 195.13 176.73 194.66 176.44 194.66 176.44 194.56 176.38 194.56 176.38M 198.14 178.51C 197.66 178.23 197.5 177.62 197.77 177.14 198.05 176.66 198.66 176.5 199.14 176.78 199.17 176.79 199.2 176.81 199.23 176.83 199.71 177.11 199.88 177.72 199.6 178.2 199.32 178.67 198.71 178.84 198.23 178.56 198.23 178.56 198.14 178.51 198.14 178.51M 201.75 180.55C 201.27 180.28 201.09 179.68 201.36 179.19 201.63 178.71 202.24 178.53 202.72 178.8 202.75 178.82 202.78 178.83 202.82 178.85 203.3 179.12 203.48 179.73 203.21 180.21 202.94 180.69 202.33 180.87 201.85 180.6 201.85 180.6 201.75 180.55 201.75 180.55M 205.41 182.52C 204.92 182.26 204.73 181.66 204.99 181.17 205.25 180.68 205.85 180.49 206.34 180.74 206.37 180.76 206.4 180.78 206.44 180.79 206.93 181.05 207.12 181.65 206.86 182.14 206.61 182.63 206 182.82 205.51 182.57 205.51 182.57 205.41 182.52 205.41 182.52M 209.12 184.4C 208.62 184.15 208.42 183.55 208.66 183.06 208.91 182.56 209.51 182.36 210 182.6 210.03 182.62 210.07 182.64 210.1 182.65 210.6 182.9 210.8 183.5 210.56 183.99 210.31 184.49 209.71 184.69 209.22 184.45 209.22 184.45 209.12 184.4 209.12 184.4M 212.86 186.19C 212.36 185.96 212.15 185.36 212.38 184.86 212.61 184.36 213.2 184.14 213.71 184.38 213.74 184.39 213.77 184.41 213.81 184.42 214.31 184.66 214.53 185.25 214.29 185.75 214.06 186.25 213.47 186.47 212.97 186.24 212.97 186.24 212.86 186.19 212.86 186.19M 216.66 187.89C 216.15 187.67 215.92 187.08 216.14 186.58 216.36 186.07 216.95 185.84 217.45 186.06 217.49 186.07 217.52 186.09 217.55 186.1 218.06 186.32 218.29 186.91 218.07 187.42 217.85 187.92 217.27 188.16 216.76 187.94 216.76 187.94 216.66 187.89 216.66 187.89M 220.49 189.5C 219.98 189.29 219.73 188.71 219.94 188.2 220.15 187.69 220.73 187.44 221.24 187.65 221.28 187.66 221.31 187.67 221.34 187.69 221.86 187.89 222.1 188.48 221.9 188.99 221.69 189.5 221.11 189.75 220.6 189.54 220.6 189.54 220.49 189.5 220.49 189.5M 224.38 191.01C 223.86 190.82 223.6 190.24 223.79 189.72 223.98 189.21 224.56 188.94 225.08 189.14 225.11 189.15 225.14 189.16 225.18 189.17 225.7 189.37 225.96 189.94 225.77 190.46 225.57 190.98 225 191.24 224.48 191.05 224.48 191.05 224.38 191.01 224.38 191.01M 228.3 192.41C 227.78 192.23 227.5 191.67 227.68 191.14 227.86 190.62 228.42 190.34 228.95 190.52 228.98 190.53 229.02 190.54 229.05 190.56 229.57 190.73 229.85 191.3 229.67 191.83 229.49 192.35 228.93 192.63 228.4 192.45 228.4 192.45 228.3 192.41 228.3 192.41M 232.26 193.71C 231.73 193.54 231.44 192.98 231.6 192.46 231.77 191.93 232.33 191.63 232.85 191.8 232.89 191.81 232.92 191.82 232.96 191.83 233.49 191.99 233.78 192.55 233.62 193.08 233.45 193.61 232.89 193.9 232.37 193.74 232.37 193.74 232.26 193.71 232.26 193.71M 236.26 194.89C 235.72 194.74 235.41 194.19 235.56 193.66 235.71 193.13 236.26 192.81 236.8 192.96 236.83 192.97 236.87 192.98 236.9 192.99 237.43 193.14 237.74 193.69 237.59 194.23 237.45 194.76 236.89 195.07 236.36 194.92 236.36 194.92 236.26 194.89 236.26 194.89M 240.29 195.96C 239.75 195.82 239.42 195.28 239.56 194.74 239.69 194.21 240.23 193.88 240.77 194.02 240.8 194.02 240.84 194.03 240.87 194.04 241.41 194.17 241.74 194.72 241.6 195.25 241.47 195.79 240.93 196.12 240.39 195.98 240.39 195.98 240.29 195.96 240.29 195.96M 244.35 196.9C 243.81 196.79 243.46 196.25 243.58 195.71 243.7 195.17 244.23 194.83 244.77 194.95 244.81 194.96 244.84 194.96 244.88 194.97 245.42 195.09 245.76 195.62 245.64 196.16 245.53 196.7 244.99 197.04 244.45 196.93 244.45 196.93 244.35 196.9 244.35 196.9M 248.43 197.73C 247.89 197.63 247.53 197.1 247.63 196.56 247.73 196.02 248.26 195.66 248.8 195.76 248.83 195.77 248.87 195.77 248.91 195.78 249.45 195.88 249.81 196.4 249.71 196.95 249.61 197.49 249.09 197.85 248.54 197.75 248.54 197.75 248.43 197.73 248.43 197.73M 252.55 198.43C 252 198.34 251.63 197.83 251.71 197.29 251.79 196.74 252.3 196.36 252.85 196.45 252.89 196.45 252.92 196.46 252.96 196.47 253.5 196.55 253.88 197.06 253.8 197.61 253.71 198.15 253.2 198.53 252.66 198.44 252.66 198.44 252.55 198.43 252.55 198.43M 256.68 199C 256.13 198.93 255.74 198.43 255.81 197.88 255.87 197.34 256.37 196.95 256.92 197.01 256.96 197.02 256.99 197.02 257.03 197.03 257.58 197.09 257.97 197.59 257.9 198.14 257.83 198.69 257.34 199.08 256.79 199.01 256.79 199.01 256.68 199 256.68 199M 260.83 199.44C 260.28 199.39 259.87 198.9 259.92 198.35 259.97 197.8 260.46 197.4 261.01 197.45 261.04 197.45 261.08 197.46 261.12 197.46 261.67 197.51 262.07 198 262.02 198.55 261.97 199.1 261.49 199.5 260.94 199.45 260.94 199.45 260.83 199.44 260.83 199.44M 264.99 199.75C 264.43 199.72 264.01 199.25 264.05 198.7 264.08 198.15 264.55 197.73 265.1 197.76 265.14 197.76 265.18 197.76 265.21 197.76 265.77 197.8 266.19 198.27 266.15 198.82 266.12 199.37 265.65 199.79 265.1 199.76 265.1 199.76 264.99 199.75 264.99 199.75M 269.15 199.94C 268.6 199.92 268.17 199.46 268.18 198.91 268.2 198.36 268.66 197.92 269.21 197.94 269.25 197.94 269.28 197.94 269.32 197.94 269.87 197.96 270.31 198.42 270.29 198.97 270.28 199.52 269.82 199.96 269.26 199.94 269.26 199.94 269.15 199.94 269.15 199.94M 273.32 199.99C 272.77 199.99 272.32 199.55 272.32 199 272.32 198.44 272.77 197.99 273.32 197.99 273.36 197.99 273.39 197.99 273.43 197.99 273.98 197.99 274.43 198.44 274.43 198.99 274.43 199.54 273.99 199.99 273.43 199.99 273.43 199.99 273.32 199.99 273.32 199.99M 277.49 199.92C 276.94 199.94 276.48 199.51 276.46 198.95 276.44 198.4 276.88 197.94 277.43 197.92 277.46 197.92 277.5 197.92 277.54 197.92 278.09 197.9 278.55 198.33 278.57 198.88 278.59 199.43 278.16 199.9 277.6 199.92 277.6 199.92 277.49 199.92 277.49 199.92M 281.66 199.72C 281.11 199.75 280.63 199.34 280.6 198.78 280.56 198.23 280.98 197.76 281.53 197.72 281.57 197.72 281.61 197.72 281.64 197.72 282.19 197.68 282.67 198.1 282.7 198.65 282.74 199.2 282.32 199.68 281.77 199.71 281.77 199.71 281.66 199.72 281.66 199.72M 285.82 199.39C 285.27 199.44 284.78 199.04 284.73 198.49 284.68 197.94 285.08 197.45 285.63 197.4 285.67 197.4 285.7 197.4 285.74 197.39 286.29 197.34 286.78 197.74 286.83 198.29 286.88 198.84 286.48 199.33 285.93 199.38 285.93 199.38 285.82 199.39 285.82 199.39M 289.96 198.95C 289.41 199.01 288.91 198.62 288.85 198.08 288.78 197.53 289.17 197.03 289.72 196.96 289.75 196.96 289.79 196.95 289.83 196.95 290.37 196.88 290.87 197.27 290.94 197.82 291.01 198.37 290.62 198.86 290.07 198.93 290.07 198.93 289.96 198.95 289.96 198.95M 294.09 198.38C 293.54 198.46 293.03 198.09 292.95 197.54 292.87 197 293.24 196.49 293.79 196.4 293.82 196.4 293.86 196.39 293.9 196.39 294.44 196.3 294.95 196.68 295.04 197.22 295.12 197.77 294.74 198.28 294.2 198.36 294.2 198.36 294.09 198.38 294.09 198.38M 298.2 197.7C 297.65 197.8 297.13 197.44 297.04 196.89 296.94 196.35 297.3 195.83 297.84 195.73 297.88 195.72 297.91 195.72 297.95 195.71 298.49 195.61 299.01 195.97 299.11 196.52 299.21 197.06 298.85 197.58 298.31 197.68 298.31 197.68 298.2 197.7 298.2 197.7M 302.28 196.91C 301.74 197.02 301.21 196.67 301.1 196.13 300.99 195.59 301.34 195.06 301.88 194.95 301.91 194.94 301.95 194.93 301.98 194.92 302.53 194.81 303.05 195.16 303.17 195.7 303.28 196.24 302.93 196.77 302.39 196.88 302.39 196.88 302.28 196.91 302.28 196.91M 306.35 196.01C 305.81 196.13 305.27 195.8 305.14 195.26 305.02 194.72 305.35 194.19 305.89 194.06 305.92 194.05 305.96 194.04 306 194.03 306.53 193.91 307.07 194.24 307.2 194.78 307.33 195.32 306.99 195.85 306.46 195.98 306.46 195.98 306.35 196.01 306.35 196.01M 310.38 195C 309.85 195.14 309.3 194.82 309.16 194.29 309.02 193.75 309.34 193.21 309.88 193.07 309.91 193.06 309.95 193.05 309.98 193.04 310.52 192.9 311.07 193.22 311.21 193.75 311.35 194.29 311.03 194.83 310.49 194.97 310.49 194.97 310.38 195 310.38 195M 314.39 193.9C 313.86 194.05 313.31 193.75 313.16 193.22 313 192.69 313.31 192.13 313.84 191.98 313.88 191.97 313.91 191.96 313.95 191.95 314.48 191.8 315.03 192.1 315.18 192.63 315.34 193.16 315.03 193.72 314.5 193.87 314.5 193.87 314.39 193.9 314.39 193.9M 318.37 192.71C 317.85 192.87 317.29 192.58 317.12 192.05 316.96 191.52 317.25 190.96 317.78 190.8 317.81 190.79 317.85 190.78 317.88 190.77 318.41 190.6 318.97 190.89 319.14 191.42 319.3 191.95 319.01 192.51 318.48 192.67 318.48 192.67 318.37 192.71 318.37 192.71M 322.33 191.42C 321.8 191.6 321.23 191.32 321.06 190.8 320.88 190.27 321.16 189.7 321.69 189.53 321.72 189.52 321.76 189.5 321.79 189.49 322.31 189.32 322.88 189.6 323.06 190.12 323.23 190.64 322.95 191.21 322.43 191.39 322.43 191.39 322.33 191.42 322.33 191.42M 326.25 190.05C 325.73 190.24 325.15 189.97 324.97 189.45 324.78 188.93 325.05 188.36 325.57 188.17 325.6 188.16 325.64 188.15 325.67 188.14 326.19 187.95 326.76 188.22 326.95 188.74 327.14 189.26 326.87 189.83 326.35 190.02 326.35 190.02 326.25 190.05 326.25 190.05M 330.13 188.61C 329.62 188.8 329.04 188.55 328.84 188.03 328.65 187.52 328.9 186.94 329.42 186.74 329.45 186.73 329.49 186.71 329.52 186.7 330.04 186.5 330.62 186.76 330.81 187.27 331.01 187.79 330.75 188.37 330.24 188.57 330.24 188.57 330.13 188.61 330.13 188.61M 333.99 187.08C 333.48 187.29 332.9 187.04 332.69 186.53 332.48 186.02 332.73 185.44 333.24 185.23 333.27 185.22 333.31 185.2 333.34 185.19 333.85 184.98 334.44 185.23 334.65 185.74 334.85 186.25 334.61 186.83 334.1 187.04 334.1 187.04 333.99 187.08 333.99 187.08M 337.82 185.49C 337.31 185.7 336.73 185.47 336.51 184.96 336.29 184.45 336.53 183.86 337.03 183.65 337.07 183.63 337.1 183.62 337.14 183.6 337.64 183.39 338.23 183.62 338.45 184.13 338.67 184.64 338.43 185.23 337.92 185.44 337.92 185.44 337.82 185.49 337.82 185.49M 341.62 183.82C 341.11 184.05 340.52 183.82 340.3 183.32 340.07 182.82 340.3 182.22 340.8 182 340.83 181.98 340.87 181.97 340.9 181.95 341.4 181.73 342 181.95 342.22 182.46 342.45 182.96 342.22 183.55 341.72 183.78 341.72 183.78 341.62 183.82 341.62 183.82M 345.38 182.1C 344.88 182.33 344.29 182.12 344.05 181.62 343.82 181.12 344.04 180.52 344.54 180.29 344.57 180.27 344.6 180.26 344.64 180.24 345.14 180.01 345.73 180.22 345.97 180.72 346.2 181.22 345.98 181.82 345.48 182.05 345.48 182.05 345.38 182.1 345.38 182.1M 349.12 180.31C 348.62 180.56 348.03 180.35 347.78 179.85 347.54 179.36 347.75 178.76 348.25 178.52 348.28 178.5 348.31 178.48 348.34 178.47 348.84 178.22 349.44 178.43 349.68 178.93 349.92 179.42 349.72 180.02 349.22 180.26 349.22 180.26 349.12 180.31 349.12 180.31M 352.83 178.47C 352.34 178.72 351.73 178.52 351.49 178.03 351.24 177.54 351.43 176.94 351.93 176.69 351.96 176.67 351.99 176.65 352.03 176.64 352.52 176.39 353.12 176.59 353.37 177.08 353.62 177.57 353.42 178.17 352.93 178.42 352.93 178.42 352.83 178.47 352.83 178.47M 356.51 176.58C 356.02 176.84 355.42 176.65 355.16 176.16 354.9 175.67 355.09 175.06 355.58 174.81 355.61 174.79 355.65 174.77 355.68 174.76 356.17 174.5 356.77 174.69 357.03 175.18 357.29 175.67 357.1 176.27 356.61 176.53 356.61 176.53 356.51 176.58 356.51 176.58M 360.16 174.64C 359.68 174.9 359.07 174.72 358.81 174.23 358.54 173.75 358.73 173.14 359.21 172.88 359.24 172.86 359.28 172.84 359.31 172.83 359.79 172.56 360.4 172.75 360.66 173.23 360.93 173.72 360.74 174.32 360.26 174.59 360.26 174.59 360.16 174.64 360.16 174.64M 363.79 172.65C 363.3 172.92 362.7 172.75 362.43 172.27 362.16 171.78 362.33 171.17 362.82 170.91 362.85 170.89 362.88 170.87 362.91 170.85 363.39 170.58 364 170.76 364.27 171.24 364.54 171.72 364.37 172.33 363.88 172.6 363.88 172.6 363.79 172.65 363.79 172.65M 367.39 170.63C 366.91 170.9 366.3 170.73 366.02 170.25 365.75 169.77 365.92 169.16 366.4 168.89 366.43 168.87 366.46 168.85 366.49 168.83 366.97 168.56 367.58 168.73 367.86 169.21 368.13 169.69 367.96 170.3 367.48 170.57 367.48 170.57 367.39 170.63 367.39 170.63M 370.97 168.56C 370.49 168.84 369.88 168.68 369.6 168.2 369.32 167.72 369.48 167.11 369.96 166.83 369.99 166.81 370.02 166.8 370.05 166.78 370.53 166.5 371.14 166.66 371.42 167.13 371.7 167.61 371.54 168.22 371.06 168.5 371.06 168.5 370.97 168.56 370.97 168.56M 374.52 166.45C 374.05 166.74 373.43 166.58 373.15 166.11 372.86 165.64 373.02 165.02 373.49 164.74 373.52 164.72 373.56 164.7 373.59 164.68 374.06 164.4 374.68 164.55 374.96 165.03 375.24 165.5 375.09 166.11 374.61 166.4 374.61 166.4 374.52 166.45 374.52 166.45M 378.05 164.32C 377.58 164.61 376.97 164.46 376.68 163.99 376.39 163.52 376.54 162.9 377.01 162.61 377.04 162.59 377.07 162.57 377.1 162.55 377.57 162.27 378.19 162.41 378.48 162.89 378.77 163.36 378.62 163.97 378.15 164.26 378.15 164.26 378.05 164.32 378.05 164.32M 381.56 162.15C 381.1 162.44 380.48 162.3 380.19 161.83 379.89 161.36 380.04 160.74 380.51 160.45 380.54 160.43 380.57 160.41 380.6 160.39 381.07 160.1 381.69 160.25 381.98 160.71 382.27 161.18 382.13 161.8 381.66 162.09 381.66 162.09 381.56 162.15 381.56 162.15M 385.06 159.95C 384.59 160.25 383.97 160.11 383.68 159.64 383.38 159.18 383.52 158.56 383.99 158.26 384.02 158.24 384.05 158.23 384.08 158.21 384.54 157.91 385.16 158.05 385.46 158.51 385.75 158.98 385.62 159.6 385.15 159.89 385.15 159.89 385.06 159.95 385.06 159.95M 388.53 157.73C 388.07 158.03 387.45 157.9 387.15 157.43 386.85 156.97 386.98 156.35 387.45 156.05 387.48 156.03 387.51 156.01 387.54 155.99 388 155.69 388.62 155.82 388.92 156.29 389.22 156.75 389.09 157.37 388.62 157.67 388.62 157.67 388.53 157.73 388.53 157.73M 391.99 155.48C 391.53 155.79 390.91 155.66 390.6 155.2 390.3 154.73 390.43 154.11 390.89 153.81 390.92 153.79 390.96 153.77 390.99 153.75 391.45 153.45 392.07 153.58 392.37 154.04 392.67 154.5 392.54 155.12 392.08 155.42 392.08 155.42 391.99 155.48 391.99 155.48M 395.43 153.22C 394.97 153.52 394.35 153.4 394.05 152.94 393.74 152.48 393.87 151.85 394.33 151.55 394.36 151.53 394.39 151.51 394.42 151.49 394.88 151.18 395.5 151.31 395.8 151.77 396.11 152.23 395.98 152.85 395.52 153.16 395.52 153.16 395.43 153.22 395.43 153.22M 398.86 150.93C 398.4 151.24 397.78 151.11 397.47 150.66 397.16 150.2 397.29 149.58 397.74 149.27 397.77 149.25 397.81 149.23 397.84 149.21 398.29 148.9 398.92 149.02 399.22 149.48 399.53 149.94 399.41 150.56 398.95 150.87 398.95 150.87 398.86 150.93 398.86 150.93M 402.27 148.62C 401.82 148.93 401.2 148.81 400.88 148.36 400.57 147.9 400.69 147.28 401.15 146.97 401.18 146.95 401.21 146.93 401.24 146.91 401.7 146.6 402.32 146.72 402.63 147.17 402.94 147.63 402.82 148.25 402.37 148.56 402.37 148.56 402.27 148.62 402.27 148.62M 405.68 146.3C 405.22 146.61 404.6 146.5 404.29 146.04 403.97 145.59 404.09 144.96 404.55 144.65 404.58 144.63 404.61 144.61 404.64 144.59 405.09 144.28 405.71 144.39 406.03 144.85 406.34 145.31 406.22 145.93 405.77 146.24 405.77 146.24 405.68 146.3 405.68 146.3M 409.07 143.97C 408.61 144.28 407.99 144.17 407.68 143.71 407.36 143.26 407.48 142.64 407.93 142.32 407.96 142.3 407.99 142.28 408.02 142.26 408.48 141.95 409.1 142.06 409.41 142.51 409.73 142.97 409.61 143.59 409.16 143.91 409.16 143.91 409.07 143.97 409.07 143.97M 412.45 141.62C 412 141.94 411.38 141.83 411.06 141.37 410.74 140.92 410.86 140.3 411.31 139.98 411.34 139.96 411.37 139.94 411.4 139.92 411.85 139.6 412.48 139.71 412.79 140.17 413.11 140.62 413 141.24 412.54 141.56 412.54 141.56 412.45 141.62 412.45 141.62M 415.83 139.26C 415.37 139.58 414.75 139.47 414.43 139.02 414.12 138.57 414.23 137.94 414.68 137.63 414.71 137.61 414.74 137.58 414.77 137.56 415.22 137.25 415.84 137.36 416.16 137.81 416.48 138.26 416.37 138.89 415.92 139.2 415.92 139.2 415.83 139.26 415.83 139.26M 419.19 136.9C 418.74 137.22 418.12 137.11 417.8 136.66 417.48 136.21 417.59 135.58 418.04 135.26 418.07 135.24 418.1 135.22 418.13 135.2 418.58 134.88 419.21 134.99 419.53 135.44 419.84 135.9 419.74 136.52 419.28 136.84 419.28 136.84 419.19 136.9 419.19 136.9M 422.56 134.53C 422.1 134.85 421.48 134.74 421.16 134.29 420.84 133.84 420.95 133.21 421.4 132.9 421.43 132.87 421.46 132.85 421.49 132.83 421.94 132.51 422.57 132.62 422.88 133.07 423.2 133.52 423.1 134.15 422.65 134.47 422.65 134.47 422.56 134.53 422.56 134.53M 425.91 132.15C 425.46 132.47 424.84 132.37 424.52 131.92 424.2 131.47 424.31 130.84 424.76 130.52 424.79 130.5 424.82 130.48 424.85 130.46 425.3 130.14 425.92 130.25 426.24 130.7 426.56 131.15 426.45 131.77 426 132.09 426 132.09 425.91 132.15 425.91 132.15M 429.27 129.77C 428.82 130.09 428.19 129.99 427.87 129.54 427.55 129.09 427.66 128.46 428.11 128.14 428.14 128.12 428.17 128.1 428.2 128.08 428.65 127.76 429.27 127.87 429.59 128.32 429.91 128.77 429.81 129.39 429.36 129.71 429.36 129.71 429.27 129.77 429.27 129.77M 432.62 127.39C 432.17 127.71 431.54 127.61 431.22 127.16 430.9 126.71 431.01 126.08 431.46 125.76 431.49 125.74 431.52 125.72 431.55 125.7 432 125.38 432.62 125.49 432.94 125.94 433.26 126.39 433.16 127.01 432.71 127.33 432.71 127.33 432.62 127.39 432.62 127.39M 435.97 125.01C 435.52 125.33 434.89 125.23 434.57 124.78 434.25 124.33 434.36 123.7 434.81 123.38 434.84 123.36 434.87 123.34 434.9 123.32 435.35 123 435.97 123.11 436.29 123.56 436.61 124.01 436.51 124.63 436.06 124.95 436.06 124.95 435.97 125.01 435.97 125.01M 439.32 122.64C 438.87 122.96 438.24 122.85 437.93 122.4 437.61 121.95 437.71 121.32 438.16 121.01 438.19 120.98 438.22 120.96 438.25 120.94 438.7 120.62 439.33 120.73 439.65 121.18 439.97 121.63 439.86 122.25 439.41 122.57 439.41 122.57 439.32 122.64 439.32 122.64M 442.67 120.26C 442.22 120.58 441.6 120.47 441.28 120.02 440.96 119.57 441.07 118.95 441.52 118.63 441.55 118.61 441.58 118.59 441.61 118.57 442.06 118.25 442.68 118.35 443 118.8 443.32 119.26 443.21 119.88 442.76 120.2 442.76 120.2 442.67 120.26 442.67 120.26M 446.03 117.89C 445.57 118.21 444.95 118.1 444.63 117.65 444.31 117.2 444.42 116.58 444.87 116.26 444.9 116.24 444.93 116.22 444.96 116.2 445.42 115.88 446.04 115.99 446.36 116.44 446.68 116.89 446.57 117.51 446.12 117.83 446.12 117.83 446.03 117.89 446.03 117.89M 449.38 115.53C 448.93 115.85 448.31 115.74 447.99 115.29 447.67 114.83 447.78 114.21 448.24 113.89 448.27 113.87 448.3 113.85 448.33 113.83 448.78 113.51 449.4 113.62 449.72 114.08 450.04 114.53 449.93 115.15 449.47 115.47 449.47 115.47 449.38 115.53 449.38 115.53M 452.75 113.18C 452.29 113.49 451.67 113.38 451.36 112.93 451.04 112.48 451.15 111.85 451.6 111.54 451.63 111.52 451.66 111.5 451.69 111.48 452.15 111.16 452.77 111.27 453.09 111.72 453.4 112.18 453.29 112.8 452.84 113.12 452.84 113.12 452.75 113.18 452.75 113.18M 456.12 110.83C 455.67 111.15 455.04 111.03 454.73 110.58 454.42 110.13 454.53 109.5 454.98 109.19 455.01 109.17 455.04 109.15 455.07 109.12 455.53 108.81 456.15 108.92 456.47 109.38 456.78 109.83 456.67 110.46 456.21 110.77 456.21 110.77 456.12 110.83 456.12 110.83M 459.49 108.51C 459.04 108.83 458.41 108.71 458.1 108.25 457.79 107.8 457.91 107.17 458.37 106.86 458.4 106.84 458.43 106.82 458.46 106.8 458.91 106.49 459.54 106.61 459.85 107.06 460.16 107.52 460.04 108.14 459.59 108.45 459.59 108.45 459.49 108.51 459.49 108.51M 462.89 106.21C 462.43 106.52 461.81 106.4 461.5 105.94 461.19 105.48 461.31 104.86 461.77 104.56 461.8 104.53 461.83 104.51 461.86 104.49 462.32 104.19 462.94 104.31 463.25 104.77 463.55 105.22 463.43 105.85 462.98 106.15 462.98 106.15 462.89 106.21 462.89 106.21M 466.29 103.94C 465.83 104.24 465.21 104.12 464.91 103.66 464.6 103.2 464.73 102.58 465.19 102.27 465.22 102.25 465.25 102.23 465.28 102.21 465.74 101.91 466.36 102.03 466.67 102.49 466.97 102.95 466.84 103.57 466.38 103.88 466.38 103.88 466.29 103.94 466.29 103.94M 469.72 101.69C 469.25 101.99 468.63 101.86 468.33 101.4 468.03 100.94 468.16 100.32 468.63 100.02 468.66 100 468.69 99.98 468.72 99.96 469.18 99.66 469.8 99.79 470.1 100.25 470.4 100.71 470.27 101.33 469.81 101.63 469.81 101.63 469.72 101.69 469.72 101.69M 473.16 99.48C 472.69 99.77 472.07 99.64 471.78 99.17 471.48 98.71 471.62 98.09 472.08 97.79 472.11 97.77 472.14 97.75 472.17 97.73 472.64 97.43 473.26 97.57 473.55 98.04 473.85 98.5 473.71 99.12 473.25 99.42 473.25 99.42 473.16 99.48 473.16 99.48M 476.62 97.29C 476.15 97.59 475.53 97.44 475.24 96.98 474.95 96.51 475.09 95.89 475.56 95.6 475.59 95.58 475.62 95.56 475.65 95.54 476.12 95.25 476.74 95.39 477.03 95.86 477.32 96.33 477.18 96.94 476.71 97.24 476.71 97.24 476.62 97.29 476.62 97.29M 480.09 95.15C 479.62 95.44 479.01 95.29 478.72 94.82 478.43 94.34 478.58 93.73 479.05 93.44 479.08 93.42 479.12 93.4 479.15 93.38 479.62 93.1 480.23 93.25 480.52 93.72 480.81 94.19 480.66 94.81 480.19 95.09 480.19 95.09 480.09 95.15 480.09 95.15M 483.59 93.05C 483.12 93.33 482.5 93.17 482.22 92.7 481.94 92.22 482.1 91.61 482.57 91.33 482.6 91.31 482.64 91.29 482.67 91.27 483.14 90.99 483.76 91.14 484.04 91.62 484.32 92.09 484.16 92.71 483.69 92.99 483.69 92.99 483.59 93.05 483.59 93.05M 487.12 90.98C 486.64 91.26 486.03 91.09 485.76 90.61 485.48 90.14 485.65 89.52 486.12 89.25 486.16 89.23 486.19 89.21 486.22 89.19 486.7 88.92 487.31 89.08 487.59 89.56 487.86 90.04 487.7 90.65 487.22 90.93 487.22 90.93 487.12 90.98 487.12 90.98M 490.68 88.97C 490.2 89.24 489.59 89.06 489.32 88.58 489.05 88.1 489.22 87.49 489.71 87.22 489.74 87.2 489.77 87.19 489.8 87.17 490.28 86.9 490.89 87.07 491.16 87.56 491.43 88.04 491.26 88.65 490.77 88.92 490.77 88.92 490.68 88.97 490.68 88.97M 494.26 87.01C 493.77 87.27 493.17 87.09 492.9 86.6 492.64 86.12 492.83 85.51 493.31 85.25 493.35 85.23 493.38 85.22 493.41 85.2 493.9 84.94 494.5 85.12 494.76 85.61 495.03 86.09 494.84 86.7 494.35 86.96 494.35 86.96 494.26 87.01 494.26 87.01M 497.86 85.12C 497.37 85.37 496.77 85.18 496.52 84.69 496.27 84.2 496.46 83.59 496.95 83.34 496.98 83.33 497.02 83.31 497.05 83.29 497.54 83.04 498.14 83.23 498.39 83.73 498.65 84.22 498.45 84.82 497.96 85.07 497.96 85.07 497.86 85.12 497.86 85.12M 501.5 83.3C 501 83.54 500.4 83.34 500.16 82.84 499.92 82.35 500.12 81.75 500.62 81.51 500.65 81.49 500.68 81.47 500.72 81.46 501.21 81.21 501.81 81.42 502.05 81.92 502.3 82.41 502.09 83.01 501.59 83.25 501.59 83.25 501.5 83.3 501.5 83.3M 505.18 81.55C 504.67 81.79 504.08 81.57 503.85 81.07 503.62 80.56 503.84 79.97 504.34 79.74 504.37 79.72 504.41 79.71 504.44 79.69 504.94 79.46 505.53 79.68 505.77 80.18 506 80.68 505.78 81.28 505.28 81.51 505.28 81.51 505.18 81.55 505.18 81.55M 508.88 79.9C 508.38 80.12 507.79 79.88 507.57 79.38 507.35 78.87 507.58 78.28 508.09 78.06 508.12 78.05 508.16 78.03 508.19 78.02 508.7 77.8 509.29 78.04 509.5 78.54 509.72 79.05 509.49 79.64 508.98 79.86 508.98 79.86 508.88 79.9 508.88 79.9M 512.62 78.35C 512.11 78.55 511.53 78.3 511.32 77.79 511.12 77.27 511.37 76.69 511.88 76.49 511.92 76.48 511.95 76.46 511.99 76.45 512.5 76.24 513.08 76.49 513.28 77.01 513.49 77.52 513.24 78.1 512.73 78.31 512.73 78.31 512.62 78.35 512.62 78.35M 516.41 76.9C 515.89 77.09 515.32 76.82 515.13 76.3 514.94 75.79 515.21 75.21 515.73 75.02 515.76 75.01 515.8 75 515.83 74.99 516.35 74.8 516.92 75.07 517.11 75.59 517.3 76.1 517.03 76.68 516.51 76.87 516.51 76.87 516.41 76.9 516.41 76.9M 520.23 75.59C 519.7 75.76 519.14 75.47 518.97 74.95 518.8 74.42 519.09 73.86 519.61 73.69 519.65 73.68 519.68 73.67 519.72 73.65 520.24 73.48 520.8 73.77 520.97 74.3 521.14 74.82 520.86 75.39 520.33 75.56 520.33 75.56 520.23 75.59 520.23 75.59M 524.08 74.42C 523.55 74.57 523 74.26 522.85 73.73 522.7 73.2 523.01 72.65 523.54 72.5 523.58 72.49 523.61 72.48 523.65 72.47 524.18 72.32 524.73 72.63 524.88 73.16 525.03 73.69 524.72 74.24 524.19 74.39 524.19 74.39 524.08 74.42 524.08 74.42M 527.98 73.41C 527.44 73.54 526.91 73.2 526.78 72.67 526.65 72.13 526.99 71.59 527.52 71.46 527.56 71.46 527.59 71.45 527.63 71.44 528.17 71.31 528.71 71.65 528.83 72.18 528.96 72.72 528.62 73.26 528.09 73.39 528.09 73.39 527.98 73.41 527.98 73.41M 531.91 72.58C 531.36 72.68 530.84 72.32 530.74 71.78 530.64 71.24 531 70.72 531.54 70.62 531.58 70.61 531.61 70.6 531.65 70.6 532.19 70.5 532.72 70.85 532.82 71.4 532.92 71.94 532.56 72.46 532.01 72.56 532.01 72.56 531.91 72.58 531.91 72.58M 535.86 71.95C 535.31 72.02 534.81 71.64 534.74 71.09 534.67 70.54 535.05 70.04 535.6 69.97 535.63 69.96 535.67 69.96 535.71 69.95 536.26 69.88 536.76 70.27 536.83 70.81 536.9 71.36 536.52 71.86 535.97 71.94 535.97 71.94 535.86 71.95 535.86 71.95M 539.84 71.53C 539.29 71.58 538.8 71.16 538.76 70.61 538.72 70.06 539.13 69.58 539.68 69.54 539.72 69.54 539.76 69.53 539.79 69.53 540.34 69.49 540.82 69.9 540.87 70.45 540.91 71 540.49 71.48 539.94 71.53 539.94 71.53 539.84 71.53 539.84 71.53M 543.82 71.35C 543.27 71.36 542.82 70.92 542.81 70.36 542.8 69.81 543.24 69.36 543.79 69.35 543.83 69.35 543.86 69.34 543.9 69.34 544.45 69.33 544.91 69.78 544.91 70.33 544.92 70.88 544.48 71.33 543.93 71.34 543.93 71.34 543.82 71.35 543.82 71.35M 547.81 71.4C 547.26 71.37 546.83 70.9 546.86 70.35 546.88 69.8 547.35 69.37 547.9 69.4 547.93 69.4 547.97 69.4 548.01 69.4 548.56 69.43 548.99 69.89 548.96 70.45 548.94 71 548.47 71.42 547.92 71.4 547.92 71.4 547.81 71.4 547.81 71.4M 551.79 71.69C 551.24 71.63 550.84 71.14 550.9 70.59 550.96 70.04 551.45 69.64 552 69.7 552.03 69.7 552.07 69.71 552.11 69.71 552.65 69.77 553.05 70.26 552.99 70.81 552.94 71.36 552.44 71.76 551.9 71.7 551.9 71.7 551.79 71.69 551.79 71.69M 555.74 72.22C 555.2 72.13 554.83 71.61 554.92 71.07 555.01 70.52 555.52 70.16 556.07 70.25 556.11 70.25 556.14 70.26 556.18 70.26 556.72 70.35 557.09 70.87 557 71.41 556.91 71.96 556.39 72.33 555.85 72.24 555.85 72.24 555.74 72.22 555.74 72.22M 559.67 72.98C 559.13 72.86 558.79 72.32 558.91 71.79 559.03 71.25 559.56 70.91 560.1 71.03 560.14 71.04 560.17 71.04 560.21 71.05 560.75 71.17 561.09 71.71 560.97 72.25 560.85 72.78 560.31 73.12 559.77 73 559.77 73 559.67 72.98 559.67 72.98M 563.55 73.96C 563.02 73.81 562.71 73.25 562.86 72.72 563.01 72.19 563.56 71.88 564.09 72.03 564.12 72.04 564.16 72.05 564.19 72.06 564.73 72.21 565.04 72.76 564.89 73.29 564.74 73.82 564.19 74.13 563.66 73.98 563.66 73.98 563.55 73.96 563.55 73.96M 567.39 75.13C 566.87 74.95 566.58 74.39 566.76 73.86 566.93 73.34 567.5 73.05 568.02 73.23 568.05 73.24 568.09 73.25 568.12 73.26 568.65 73.43 568.93 74 568.76 74.52 568.59 75.05 568.02 75.33 567.49 75.16 567.49 75.16 567.39 75.13 567.39 75.13M 571.19 76.47C 570.67 76.27 570.41 75.7 570.6 75.18 570.8 74.66 571.38 74.4 571.89 74.6 571.93 74.61 571.96 74.62 572 74.64 572.51 74.83 572.77 75.41 572.58 75.93 572.38 76.44 571.8 76.7 571.29 76.51 571.29 76.51 571.19 76.47 571.19 76.47M 574.94 77.96C 574.43 77.75 574.19 77.16 574.4 76.65 574.61 76.14 575.2 75.91 575.71 76.12 575.74 76.13 575.78 76.15 575.81 76.16 576.32 76.38 576.56 76.96 576.35 77.47 576.13 77.98 575.55 78.22 575.04 78.01 575.04 78.01 574.94 77.96 574.94 77.96M 578.64 79.59C 578.14 79.36 577.92 78.76 578.15 78.26 578.38 77.76 578.97 77.54 579.47 77.77 579.51 77.78 579.54 77.8 579.57 77.81 580.08 78.04 580.3 78.64 580.07 79.14 579.84 79.64 579.24 79.86 578.74 79.63 578.74 79.63 578.64 79.59 578.64 79.59M 582.31 81.32C 581.82 81.08 581.61 80.48 581.85 79.98 582.09 79.49 582.69 79.28 583.19 79.52 583.22 79.54 583.26 79.55 583.29 79.57 583.78 79.81 583.99 80.41 583.75 80.91 583.51 81.4 582.91 81.61 582.41 81.37 582.41 81.37 582.31 81.32 582.31 81.32M 585.95 83.15C 585.46 82.89 585.27 82.29 585.52 81.8 585.77 81.31 586.37 81.11 586.87 81.37 586.9 81.38 586.93 81.4 586.96 81.42 587.45 81.67 587.65 82.27 587.39 82.76 587.14 83.25 586.54 83.45 586.05 83.19 586.05 83.19 585.95 83.15 585.95 83.15M 589.56 85.04C 589.07 84.78 588.89 84.17 589.15 83.69 589.41 83.2 590.01 83.02 590.5 83.28 590.53 83.3 590.57 83.31 590.6 83.33 591.08 83.59 591.27 84.2 591.01 84.68 590.74 85.17 590.14 85.35 589.65 85.09 589.65 85.09 589.56 85.04 589.56 85.04M 593.14 87C 592.65 86.73 592.48 86.12 592.75 85.64 593.02 85.15 593.62 84.98 594.11 85.25 594.14 85.26 594.17 85.28 594.2 85.3 594.69 85.57 594.86 86.18 594.59 86.66 594.32 87.14 593.72 87.32 593.23 87.05 593.23 87.05 593.14 87 593.14 87M 596.71 89C 596.23 88.73 596.06 88.12 596.33 87.64 596.6 87.16 597.21 86.99 597.69 87.26 597.73 87.28 597.76 87.3 597.79 87.32 598.27 87.59 598.44 88.2 598.16 88.68 597.89 89.16 597.28 89.33 596.8 89.06 596.8 89.06 596.71 89 596.71 89M 600.25 91.04C 599.77 90.76 599.61 90.15 599.89 89.67 600.16 89.19 600.78 89.03 601.25 89.31 601.29 89.33 601.32 89.34 601.35 89.36 601.83 89.64 601.99 90.25 601.71 90.73 601.44 91.21 600.82 91.37 600.35 91.09 600.35 91.09 600.25 91.04 600.25 91.04M 603.79 93.11C 603.32 92.83 603.16 92.21 603.44 91.74 603.72 91.26 604.33 91.1 604.81 91.38 604.84 91.4 604.87 91.42 604.9 91.44 605.38 91.72 605.54 92.33 605.26 92.8 604.98 93.28 604.36 93.44 603.89 93.16 603.89 93.16 603.79 93.11 603.79 93.11M 607.32 95.19C 606.85 94.91 606.69 94.29 606.97 93.82 607.25 93.34 607.87 93.18 608.34 93.47 608.37 93.48 608.41 93.5 608.44 93.52 608.91 93.8 609.07 94.42 608.79 94.89 608.51 95.37 607.89 95.52 607.42 95.24 607.42 95.24 607.32 95.19 607.32 95.19M 610.86 97.29C 610.39 97 610.23 96.39 610.51 95.92 610.79 95.44 611.41 95.28 611.88 95.57 611.91 95.59 611.95 95.6 611.98 95.62 612.45 95.91 612.61 96.52 612.33 96.99 612.04 97.47 611.43 97.62 610.96 97.34 610.96 97.34 610.86 97.29 610.86 97.29M 614.39 99.38C 613.91 99.1 613.76 98.49 614.04 98.01 614.32 97.54 614.93 97.38 615.41 97.67 615.44 97.68 615.47 97.7 615.5 97.72 615.98 98 616.13 98.62 615.85 99.09 615.57 99.57 614.96 99.72 614.48 99.44 614.48 99.44 614.39 99.38 614.39 99.38M 617.92 101.49C 617.45 101.2 617.29 100.59 617.57 100.12 617.85 99.64 618.47 99.49 618.94 99.77 618.97 99.79 619.01 99.81 619.04 99.82 619.51 100.11 619.67 100.72 619.39 101.19 619.1 101.67 618.49 101.83 618.02 101.54 618.02 101.54 617.92 101.49 617.92 101.49M 621.46 103.59C 620.99 103.31 620.83 102.69 621.11 102.22 621.39 101.74 622.01 101.59 622.48 101.87 622.51 101.89 622.54 101.9 622.57 101.92 623.05 102.2 623.21 102.82 622.93 103.29 622.64 103.77 622.03 103.92 621.56 103.64 621.56 103.64 621.46 103.59 621.46 103.59M 625 105.68C 624.53 105.4 624.37 104.78 624.65 104.31 624.93 103.83 625.54 103.67 626.02 103.95 626.05 103.97 626.08 103.99 626.11 104.01 626.59 104.29 626.75 104.9 626.47 105.38 626.19 105.85 625.57 106.01 625.1 105.73 625.1 105.73 625 105.68 625 105.68M 628.55 107.76C 628.08 107.48 627.92 106.87 628.19 106.39 628.47 105.91 629.08 105.75 629.56 106.03 629.59 106.05 629.62 106.07 629.66 106.09 630.13 106.36 630.29 106.98 630.02 107.45 629.74 107.93 629.13 108.09 628.65 107.81 628.65 107.81 628.55 107.76 628.55 107.76M 632.12 109.83C 631.64 109.55 631.48 108.94 631.75 108.46 632.03 107.98 632.64 107.82 633.12 108.1 633.15 108.11 633.18 108.13 633.21 108.15 633.69 108.43 633.86 109.04 633.58 109.52 633.3 110 632.69 110.16 632.21 109.88 632.21 109.88 632.12 109.83 632.12 109.83M 635.69 111.88C 635.21 111.61 635.05 111 635.32 110.52 635.59 110.04 636.2 109.87 636.68 110.14 636.72 110.16 636.75 110.18 636.78 110.2 637.26 110.47 637.43 111.08 637.15 111.56 636.88 112.04 636.27 112.21 635.79 111.94 635.79 111.94 635.69 111.88 635.69 111.88M 639.27 113.91C 638.79 113.64 638.62 113.03 638.89 112.55 639.16 112.07 639.77 111.9 640.25 112.17 640.29 112.19 640.32 112.21 640.35 112.23 640.83 112.5 641 113.11 640.73 113.59 640.46 114.07 639.85 114.24 639.37 113.97 639.37 113.97 639.27 113.91 639.27 113.91M 642.86 115.93C 642.38 115.66 642.21 115.05 642.48 114.57 642.75 114.09 643.35 113.91 643.84 114.18 643.87 114.2 643.9 114.22 643.93 114.24 644.42 114.5 644.59 115.11 644.32 115.6 644.05 116.08 643.44 116.25 642.96 115.98 642.96 115.98 642.86 115.93 642.86 115.93M 646.47 117.92C 645.99 117.66 645.81 117.05 646.07 116.57 646.34 116.08 646.95 115.91 647.43 116.17 647.46 116.19 647.5 116.21 647.53 116.22 648.01 116.49 648.19 117.1 647.92 117.58 647.66 118.07 647.05 118.24 646.57 117.98 646.57 117.98 646.47 117.92 646.47 117.92M 650.09 119.9C 649.6 119.63 649.42 119.03 649.69 118.54 649.95 118.06 650.56 117.88 651.04 118.14 651.07 118.16 651.11 118.17 651.14 118.19 651.62 118.45 651.8 119.06 651.54 119.55 651.28 120.03 650.67 120.21 650.19 119.95 650.19 119.95 650.09 119.9 650.09 119.9M 653.72 121.85C 653.23 121.59 653.05 120.98 653.31 120.5 653.57 120.01 654.17 119.82 654.66 120.08 654.69 120.1 654.73 120.12 654.76 120.14 655.25 120.4 655.43 121 655.17 121.49 654.91 121.98 654.31 122.16 653.82 121.9 653.82 121.9 653.72 121.85 653.72 121.85M 657.37 123.78C 656.88 123.52 656.69 122.92 656.95 122.43 657.2 121.94 657.81 121.75 658.3 122.01 658.33 122.02 658.36 122.04 658.39 122.06 658.88 122.31 659.07 122.92 658.82 123.41 658.56 123.9 657.95 124.08 657.47 123.83 657.47 123.83 657.37 123.78 657.37 123.78M 661.07 125.68C 660.58 125.43 660.38 124.83 660.62 124.34 660.87 123.84 661.47 123.64 661.96 123.89 662 123.9 662.03 123.92 662.06 123.94 662.56 124.18 662.76 124.78 662.51 125.28 662.27 125.77 661.67 125.97 661.17 125.73 661.17 125.73 661.07 125.68 661.07 125.68M 664.83 127.48C 664.32 127.25 664.11 126.65 664.34 126.15 664.57 125.65 665.16 125.43 665.67 125.67 665.7 125.68 665.73 125.7 665.76 125.71 666.27 125.94 666.48 126.54 666.25 127.04 666.02 127.54 665.43 127.76 664.93 127.53 664.93 127.53 664.83 127.48 664.83 127.48M 668.64 129.18C 668.13 128.96 667.89 128.37 668.11 127.86 668.33 127.36 668.91 127.12 669.42 127.34 669.46 127.35 669.49 127.37 669.52 127.38 670.03 127.6 670.27 128.18 670.05 128.69 669.84 129.2 669.25 129.44 668.74 129.22 668.74 129.22 668.64 129.18 668.64 129.18M 672.5 130.76C 671.99 130.56 671.73 129.98 671.94 129.46 672.14 128.95 672.72 128.69 673.23 128.89 673.26 128.91 673.3 128.92 673.33 128.93 673.85 129.13 674.1 129.71 673.9 130.23 673.7 130.74 673.12 131 672.61 130.8 672.61 130.8 672.5 130.76 672.5 130.76M 676.42 132.21C 675.9 132.03 675.62 131.46 675.81 130.94 675.99 130.42 676.56 130.14 677.08 130.33 677.12 130.34 677.15 130.35 677.19 130.36 677.71 130.55 677.98 131.12 677.8 131.64 677.62 132.16 677.04 132.43 676.52 132.25 676.52 132.25 676.42 132.21 676.42 132.21M 680.38 133.53C 679.85 133.37 679.56 132.81 679.73 132.28 679.89 131.75 680.45 131.46 680.98 131.62 681.02 131.64 681.05 131.65 681.08 131.66 681.61 131.82 681.91 132.38 681.74 132.91 681.58 133.44 681.01 133.73 680.49 133.57 680.49 133.57 680.38 133.53 680.38 133.53M 684.39 134.71C 683.86 134.57 683.54 134.02 683.69 133.48 683.84 132.95 684.39 132.64 684.92 132.78 684.95 132.79 684.99 132.8 685.03 132.81 685.56 132.96 685.87 133.51 685.73 134.04 685.58 134.57 685.03 134.89 684.5 134.74 684.5 134.74 684.39 134.71 684.39 134.71M 688.45 135.74C 687.92 135.62 687.58 135.08 687.71 134.54 687.83 134 688.37 133.67 688.91 133.79 688.94 133.8 688.98 133.81 689.02 133.82 689.55 133.94 689.89 134.48 689.76 135.02 689.64 135.56 689.1 135.89 688.56 135.77 688.56 135.77 688.45 135.74 688.45 135.74M 692.55 136.61C 692.01 136.5 691.66 135.98 691.76 135.44 691.86 134.9 692.39 134.54 692.93 134.64 692.96 134.65 693 134.66 693.04 134.66 693.58 134.77 693.94 135.29 693.83 135.83 693.73 136.37 693.21 136.73 692.66 136.63 692.66 136.63 692.55 136.61 692.55 136.61M 696.69 137.3C 696.14 137.22 695.76 136.72 695.84 136.17 695.92 135.62 696.43 135.25 696.98 135.33 697.01 135.33 697.05 135.34 697.09 135.34 697.63 135.42 698.01 135.93 697.93 136.48 697.85 137.02 697.34 137.4 696.8 137.32 696.8 137.32 696.69 137.3 696.69 137.3M 700.86 137.82C 700.31 137.77 699.91 137.28 699.96 136.73 700.02 136.18 700.51 135.78 701.06 135.83 701.1 135.84 701.13 135.84 701.17 135.84 701.72 135.9 702.12 136.39 702.06 136.94 702.01 137.49 701.52 137.89 700.97 137.83 700.97 137.83 700.86 137.82 700.86 137.82M 705.04 138.15C 704.49 138.12 704.07 137.65 704.1 137.1 704.13 136.55 704.6 136.13 705.15 136.16 705.19 136.16 705.23 136.16 705.26 136.16 705.81 136.19 706.24 136.67 706.21 137.22 706.18 137.77 705.7 138.19 705.15 138.16 705.15 138.16 705.04 138.15 705.04 138.15M 709.24 138.29C 708.69 138.29 708.25 137.84 708.25 137.28 708.26 136.73 708.71 136.29 709.26 136.29 709.3 136.29 709.34 136.29 709.37 136.29 709.92 136.3 710.37 136.75 710.36 137.3 710.36 137.85 709.91 138.3 709.36 138.29 709.36 138.29 709.24 138.29 709.24 138.29M 713.45 138.23C 712.89 138.25 712.43 137.82 712.41 137.27 712.39 136.72 712.82 136.25 713.37 136.23 713.41 136.23 713.44 136.23 713.48 136.23 714.03 136.21 714.5 136.64 714.52 137.19 714.54 137.74 714.11 138.2 713.56 138.23 713.56 138.23 713.45 138.23 713.45 138.23M 717.65 137.97C 717.1 138.02 716.61 137.61 716.56 137.06 716.51 136.51 716.92 136.02 717.47 135.98 717.51 135.97 717.55 135.97 717.58 135.97 718.13 135.92 718.62 136.32 718.67 136.87 718.71 137.42 718.31 137.91 717.76 137.96 717.76 137.96 717.65 137.97 717.65 137.97M 721.83 137.5C 721.28 137.58 720.77 137.19 720.7 136.65 720.63 136.1 721.01 135.59 721.56 135.52 721.59 135.51 721.63 135.51 721.66 135.5 722.21 135.43 722.72 135.81 722.79 136.36 722.87 136.91 722.48 137.41 721.94 137.49 721.94 137.49 721.83 137.5 721.83 137.5M 725.98 136.83C 725.44 136.93 724.91 136.57 724.81 136.03 724.71 135.49 725.07 134.97 725.61 134.86 725.65 134.86 725.68 134.85 725.72 134.84 726.26 134.74 726.79 135.1 726.89 135.64 726.99 136.18 726.63 136.71 726.09 136.81 726.09 136.81 725.98 136.83 725.98 136.83M 730.09 135.96C 729.56 136.09 729.02 135.75 728.89 135.22 728.76 134.68 729.09 134.14 729.63 134.01 729.67 134 729.7 133.99 729.74 133.99 730.28 133.86 730.82 134.19 730.94 134.73 731.07 135.26 730.74 135.8 730.2 135.93 730.2 135.93 730.09 135.96 730.09 135.96M 734.16 134.89C 733.63 135.04 733.08 134.74 732.92 134.21 732.77 133.68 733.08 133.12 733.61 132.97 733.64 132.96 733.68 132.95 733.71 132.94 734.24 132.78 734.8 133.09 734.95 133.62 735.11 134.15 734.8 134.7 734.27 134.86 734.27 134.86 734.16 134.89 734.16 134.89M 738.17 133.63C 737.65 133.81 737.08 133.53 736.9 133.01 736.72 132.48 737 131.91 737.53 131.74 737.56 131.72 737.6 131.71 737.63 131.7 738.15 131.52 738.72 131.8 738.9 132.32 739.08 132.85 738.8 133.42 738.28 133.59 738.28 133.59 738.17 133.63 738.17 133.63M 742.12 132.19C 741.6 132.39 741.02 132.14 740.82 131.62 740.62 131.11 740.87 130.53 741.39 130.33 741.42 130.31 741.46 130.3 741.49 130.29 742 130.08 742.58 130.34 742.79 130.85 742.99 131.37 742.74 131.95 742.22 132.15 742.22 132.15 742.12 132.19 742.12 132.19M 745.99 130.57C 745.49 130.8 744.9 130.57 744.67 130.06 744.45 129.56 744.68 128.97 745.18 128.74 745.21 128.73 745.25 128.71 745.28 128.7 745.79 128.48 746.38 128.7 746.6 129.21 746.83 129.71 746.6 130.3 746.09 130.53 746.09 130.53 745.99 130.57 745.99 130.57M 749.79 128.79C 749.29 129.04 748.69 128.84 748.45 128.34 748.2 127.85 748.41 127.25 748.9 127 748.94 126.98 748.97 126.97 749 126.95 749.5 126.71 750.1 126.91 750.34 127.4 750.59 127.9 750.38 128.5 749.89 128.74 749.89 128.74 749.79 128.79 749.79 128.79M 753.51 126.86C 753.02 127.12 752.41 126.95 752.15 126.46 751.89 125.98 752.06 125.37 752.55 125.1 752.58 125.09 752.61 125.07 752.64 125.05 753.13 124.79 753.74 124.96 754 125.45 754.27 125.93 754.09 126.54 753.6 126.81 753.6 126.81 753.51 126.86 753.51 126.86M 757.14 124.78C 756.67 125.07 756.05 124.91 755.77 124.44 755.49 123.96 755.64 123.35 756.12 123.07 756.15 123.05 756.18 123.03 756.21 123.01 756.69 122.73 757.3 122.88 757.58 123.35 757.87 123.83 757.71 124.44 757.24 124.72 757.24 124.72 757.14 124.78 757.14 124.78M 760.69 122.57C 760.23 122.87 759.61 122.74 759.31 122.28 759.01 121.81 759.14 121.19 759.61 120.89 759.64 120.87 759.67 120.85 759.7 120.83 760.16 120.53 760.78 120.67 761.08 121.13 761.38 121.59 761.25 122.21 760.79 122.51 760.79 122.51 760.69 122.57 760.69 122.57M 764.16 120.24C 763.71 120.56 763.09 120.44 762.77 119.99 762.45 119.54 762.56 118.92 763.02 118.6 763.05 118.58 763.08 118.56 763.11 118.54 763.56 118.22 764.18 118.33 764.5 118.78 764.82 119.24 764.71 119.86 764.25 120.18 764.25 120.18 764.16 120.24 764.16 120.24M 767.54 117.79C 767.1 118.12 766.48 118.03 766.14 117.59 765.81 117.15 765.9 116.52 766.35 116.19 766.38 116.17 766.4 116.15 766.43 116.13 766.88 115.79 767.5 115.88 767.83 116.33 768.17 116.77 768.08 117.4 767.63 117.73 767.63 117.73 767.54 117.79 767.54 117.79M 770.85 115.24C 770.41 115.59 769.78 115.52 769.44 115.08 769.1 114.65 769.17 114.02 769.6 113.68 769.63 113.66 769.66 113.63 769.68 113.61 770.12 113.27 770.75 113.34 771.09 113.77 771.43 114.2 771.36 114.83 770.93 115.17 770.93 115.17 770.85 115.24 770.85 115.24M 774.07 112.6C 773.64 112.95 773.01 112.9 772.66 112.48 772.3 112.06 772.35 111.43 772.77 111.07 772.8 111.05 772.83 111.02 772.86 111 773.28 110.64 773.91 110.69 774.27 111.11 774.62 111.54 774.57 112.17 774.15 112.52 774.15 112.52 774.07 112.6 774.07 112.6M 777.21 109.86C 776.8 110.23 776.16 110.19 775.8 109.78 775.43 109.37 775.46 108.74 775.87 108.37 775.9 108.35 775.93 108.32 775.96 108.3 776.37 107.93 777 107.96 777.37 108.37 777.74 108.79 777.7 109.42 777.29 109.79 777.29 109.79 777.21 109.86 777.21 109.86M 780.27 107.05C 779.87 107.43 779.24 107.41 778.86 107 778.48 106.6 778.5 105.97 778.9 105.59 778.93 105.57 778.95 105.54 778.98 105.52 779.38 105.14 780.02 105.15 780.39 105.56 780.77 105.96 780.75 106.59 780.35 106.97 780.35 106.97 780.27 107.05 780.27 107.05M 783.26 104.16C 782.87 104.55 782.24 104.54 781.85 104.15 781.46 103.76 781.46 103.12 781.86 102.74 781.88 102.71 781.91 102.68 781.94 102.66 782.33 102.27 782.96 102.27 783.35 102.67 783.74 103.06 783.74 103.69 783.34 104.08 783.34 104.08 783.26 104.16 783.26 104.16M 786.18 101.2C 785.8 101.6 785.17 101.61 784.77 101.23 784.37 100.84 784.36 100.21 784.75 99.81 784.77 99.79 784.8 99.76 784.82 99.73 785.21 99.34 785.84 99.32 786.24 99.71 786.63 100.09 786.64 100.72 786.26 101.12 786.26 101.12 786.18 101.2 786.18 101.2M 789.04 98.18C 788.66 98.59 788.03 98.61 787.62 98.24 787.22 97.86 787.19 97.23 787.57 96.82 787.59 96.8 787.62 96.77 787.64 96.74 788.02 96.34 788.65 96.31 789.06 96.69 789.46 97.06 789.49 97.7 789.11 98.1 789.11 98.1 789.04 98.18 789.04 98.18M 791.82 95.11C 791.46 95.52 790.83 95.56 790.41 95.19 790 94.83 789.96 94.19 790.33 93.78 790.35 93.75 790.38 93.73 790.4 93.7 790.77 93.29 791.4 93.25 791.81 93.61 792.23 93.98 792.27 94.61 791.9 95.03 791.9 95.03 791.82 95.11 791.82 95.11M 794.55 91.98C 794.19 92.4 793.56 92.45 793.14 92.09 792.72 91.73 792.67 91.1 793.03 90.68 793.05 90.65 793.08 90.63 793.1 90.6 793.46 90.18 794.09 90.13 794.51 90.49 794.93 90.85 794.98 91.48 794.62 91.9 794.62 91.9 794.55 91.98 794.55 91.98M 797.22 88.81C 796.87 89.23 796.24 89.29 795.81 88.94 795.38 88.59 795.32 87.96 795.67 87.54 795.7 87.51 795.72 87.48 795.74 87.45 796.1 87.02 796.73 86.96 797.15 87.32 797.58 87.67 797.64 88.3 797.29 88.72 797.29 88.72 797.22 88.81 797.22 88.81M 799.83 85.59C 799.48 86.02 798.85 86.09 798.42 85.75 797.99 85.4 797.92 84.78 798.26 84.34 798.29 84.31 798.31 84.29 798.33 84.26 798.68 83.83 799.31 83.75 799.74 84.1 800.17 84.44 800.24 85.07 799.9 85.5 799.9 85.5 799.83 85.59 799.83 85.59M 802.38 82.33C 802.05 82.77 801.42 82.85 800.98 82.51 800.55 82.18 800.46 81.55 800.8 81.11 800.82 81.08 800.85 81.05 800.87 81.02 801.21 80.59 801.83 80.51 802.27 80.84 802.71 81.18 802.79 81.81 802.45 82.25 802.45 82.25 802.38 82.33 802.38 82.33M 804.89 79.04C 804.56 79.48 803.93 79.57 803.49 79.24 803.05 78.91 802.96 78.28 803.29 77.84 803.31 77.81 803.33 77.78 803.36 77.75 803.69 77.31 804.31 77.22 804.76 77.55 805.2 77.88 805.29 78.51 804.96 78.95 804.96 78.95 804.89 79.04 804.89 79.04M 807.35 75.71C 807.02 76.16 806.4 76.26 805.95 75.93 805.51 75.61 805.41 74.98 805.73 74.53 805.75 74.5 805.78 74.47 805.8 74.44 806.12 74 806.75 73.9 807.19 74.23 807.64 74.55 807.74 75.18 807.41 75.62 807.41 75.62 807.35 75.71 807.35 75.71M 809.76 72.35C 809.44 72.8 808.82 72.91 808.37 72.59 807.92 72.27 807.81 71.65 808.13 71.2 808.15 71.17 808.17 71.14 808.19 71.11 808.51 70.66 809.14 70.55 809.59 70.87 810.04 71.19 810.15 71.81 809.83 72.26 809.83 72.26 809.76 72.35 809.76 72.35M 812.13 68.97C 811.82 69.42 811.2 69.53 810.74 69.22 810.29 68.91 810.17 68.28 810.49 67.83 810.51 67.8 810.53 67.77 810.55 67.74 810.87 67.28 811.49 67.17 811.94 67.48 812.4 67.8 812.51 68.42 812.2 68.88 812.2 68.88 812.13 68.97 812.13 68.97M 814.46 65.55C 814.16 66.01 813.53 66.13 813.08 65.82 812.62 65.51 812.5 64.89 812.81 64.44 812.83 64.41 812.85 64.37 812.87 64.34 813.18 63.89 813.8 63.77 814.26 64.07 814.71 64.38 814.83 65 814.53 65.46 814.53 65.46 814.46 65.55 814.46 65.55M 816.76 62.12C 816.45 62.58 815.83 62.71 815.37 62.4 814.91 62.1 814.78 61.48 815.09 61.02 815.11 60.99 815.13 60.95 815.15 60.92 815.45 60.46 816.07 60.34 816.53 60.64 817 60.94 817.12 61.56 816.82 62.03 816.82 62.03 816.76 62.12 816.76 62.12M 819.02 58.66C 818.72 59.13 818.1 59.26 817.63 58.96 817.17 58.66 817.04 58.04 817.34 57.58 817.36 57.55 817.38 57.51 817.4 57.48 817.7 57.02 818.31 56.89 818.78 57.19 819.24 57.49 819.38 58.11 819.08 58.57 819.08 58.57 819.02 58.66 819.02 58.66M 821.24 55.18C 820.95 55.65 820.33 55.79 819.86 55.49 819.4 55.2 819.26 54.58 819.55 54.11 819.57 54.08 819.59 54.05 819.61 54.02 819.91 53.55 820.53 53.42 820.99 53.71 821.46 54.01 821.6 54.62 821.3 55.09 821.3 55.09 821.24 55.18 821.24 55.18M 823.44 51.69C 823.14 52.16 822.53 52.3 822.06 52.01 821.59 51.72 821.45 51.1 821.74 50.64 821.76 50.6 821.78 50.57 821.8 50.54 822.09 50.07 822.71 49.93 823.18 50.22 823.64 50.51 823.79 51.13 823.5 51.6 823.5 51.6 823.44 51.69 823.44 51.69M 825.61 48.18C 825.32 48.65 824.7 48.8 824.23 48.51 823.76 48.22 823.61 47.61 823.9 47.14 823.92 47.11 823.94 47.07 823.96 47.04 824.25 46.57 824.86 46.42 825.33 46.71 825.8 47 825.95 47.62 825.66 48.09 825.66 48.09 825.61 48.18 825.61 48.18M 827.75 44.66C 827.46 45.14 826.85 45.29 826.38 45 825.9 44.72 825.75 44.1 826.04 43.63 826.06 43.6 826.07 43.57 826.09 43.53 826.38 43.06 826.99 42.91 827.47 43.19 827.94 43.48 828.09 44.09 827.81 44.57 827.81 44.57 827.75 44.66 827.75 44.66M 829.87 41.13C 829.59 41.6 828.97 41.76 828.5 41.47 828.03 41.19 827.87 40.58 828.15 40.1 828.17 40.07 828.19 40.04 828.21 40.01 828.49 39.53 829.11 39.38 829.58 39.66 830.06 39.94 830.21 40.56 829.93 41.03 829.93 41.03 829.87 41.13 829.87 41.13M 831.97 37.58C 831.69 38.06 831.08 38.22 830.6 37.94 830.13 37.66 829.97 37.04 830.25 36.57 830.27 36.54 830.29 36.5 830.31 36.47 830.59 36 831.2 35.84 831.68 36.12 832.15 36.4 832.31 37.01 832.03 37.49 832.03 37.49 831.97 37.58 831.97 37.58M 834.06 34.03C 833.78 34.51 833.17 34.67 832.69 34.39 832.21 34.11 832.05 33.5 832.33 33.02 832.35 32.99 832.37 32.96 832.39 32.93 832.67 32.45 833.28 32.29 833.75 32.57 834.23 32.85 834.39 33.46 834.11 33.94 834.11 33.94 834.06 34.03 834.06 34.03M 836.13 30.48C 835.85 30.95 835.24 31.12 834.76 30.84 834.29 30.56 834.12 29.95 834.4 29.47 834.42 29.44 834.44 29.41 834.46 29.38 834.73 28.9 835.35 28.74 835.82 29.01 836.3 29.29 836.46 29.9 836.19 30.38 836.19 30.38 836.13 30.48 836.13 30.48M 838.19 26.92C 837.91 27.4 837.3 27.56 836.82 27.28 836.35 27.01 836.18 26.4 836.46 25.92 836.48 25.89 836.5 25.85 836.51 25.82 836.79 25.34 837.4 25.18 837.88 25.46 838.36 25.73 838.52 26.34 838.25 26.82 838.25 26.82 838.19 26.92 838.19 26.92M 840.25 23.35C 839.97 23.83 839.36 24 838.88 23.72 838.4 23.45 838.24 22.83 838.52 22.36 838.53 22.32 838.55 22.29 838.57 22.26 838.85 21.78 839.46 21.62 839.94 21.89 840.41 22.17 840.58 22.78 840.3 23.26 840.3 23.26 840.25 23.35 840.25 23.35M 842.3 19.79C 842.03 20.27 841.41 20.44 840.94 20.16 840.46 19.88 840.29 19.27 840.57 18.79 840.59 18.76 840.61 18.73 840.62 18.7 840.9 18.22 841.51 18.06 841.99 18.33 842.47 18.61 842.63 19.22 842.36 19.7 842.36 19.7 842.3 19.79 842.3 19.79M 844.36 16.24C 844.08 16.72 843.47 16.88 842.99 16.6 842.51 16.33 842.35 15.71 842.63 15.24 842.65 15.21 842.66 15.17 842.68 15.14 842.96 14.66 843.57 14.5 844.05 14.78 844.53 15.05 844.69 15.67 844.41 16.14 844.41 16.14 844.36 16.24 844.36 16.24M 846.42 12.7C 846.14 13.17 845.53 13.33 845.05 13.05 844.58 12.78 844.41 12.16 844.69 11.69 844.71 11.65 844.73 11.62 844.75 11.59 845.03 11.11 845.64 10.95 846.12 11.23 846.59 11.51 846.75 12.12 846.48 12.6 846.48 12.6 846.42 12.7 846.42 12.7M 848.5 9.17C 848.22 9.64 847.6 9.8 847.13 9.52 846.65 9.23 846.5 8.62 846.78 8.15 846.8 8.11 846.81 8.08 846.83 8.05 847.12 7.58 847.73 7.42 848.2 7.7 848.68 7.98 848.84 8.6 848.55 9.07 848.55 9.07 848.5 9.17 848.5 9.17M 850.6 5.65C 850.31 6.13 849.7 6.28 849.23 5.99 848.75 5.71 848.6 5.09 848.89 4.62 848.91 4.59 848.93 4.56 848.94 4.52 849.23 4.05 849.84 3.9 850.32 4.19 850.79 4.47 850.94 5.09 850.66 5.56 850.66 5.56 850.6 5.65 850.6 5.65M 852.73 2.17C 852.44 2.64 851.82 2.78 851.36 2.49 850.89 2.2 850.74 1.58 851.03 1.11 851.05 1.08 851.07 1.05 851.09 1.02 851.38 0.55 852 0.41 852.47 0.7 852.94 0.99 853.08 1.61 852.79 2.07 852.79 2.07 852.73 2.17 852.73 2.17" fill="rgb(51,51,51)" opacity="0.80"/></svg>